<svg id="Capa_1" data-name="Capa 1" xmlns="http://www.w3.org/2000/svg" viewBox="0 0 204.8 208.23"><defs><style>.cls-1{fill:#fff;}</style></defs><title>cat2</title><path class="cls-1" d="M196.63,41h-26a3.41,3.41,0,1,0,0,6.82h26a3.06,3.06,0,0,1,3.06,3.06V174.45a3.06,3.06,0,0,1-3.06,3.06H11.6a3.06,3.06,0,0,1-3.06-3.06V50.86A3.07,3.07,0,0,1,11.6,47.8H38A3.41,3.41,0,1,0,38,41H11.6a9.9,9.9,0,0,0-9.89,9.88V174.45a9.91,9.91,0,0,0,9.89,9.89h185a9.9,9.9,0,0,0,9.88-9.89V50.86A9.89,9.89,0,0,0,196.63,41Z" transform="translate(-1.71 0)"/><path class="cls-1" d="M192.86,51.22h-20.6a3.41,3.41,0,1,0,0,6.82h17.19V167.27H18.78V58H36a3.41,3.41,0,1,0,0-6.82H15.37A3.42,3.42,0,0,0,12,54.63V170.68a3.42,3.42,0,0,0,3.42,3.42H192.86a3.42,3.42,0,0,0,3.41-3.42v-116A3.4,3.4,0,0,0,192.86,51.22Z" transform="translate(-1.71 0)"/><path class="cls-1" d="M114.36,177.51H93.88a3.42,3.42,0,0,0-3.42,3.41v23.9a3.42,3.42,0,0,0,3.42,3.41h20.47a3.42,3.42,0,0,0,3.42-3.41v-23.9A3.41,3.41,0,0,0,114.36,177.51Zm-3.42,23.89H97.29V184.34h13.65Z" transform="translate(-1.71 0)"/><path class="cls-1" d="M138.25,201.4H70a3.42,3.42,0,0,0,0,6.83h68.27a3.42,3.42,0,0,0,0-6.83Z" transform="translate(-1.71 0)"/><path class="cls-1" d="M175.56,53.34c-.72-2.66-1.4-5.25-2.07-7.76C167.31,22.24,162.84,5.38,151,1.88c-4.67-1.38-14.39-4.26-24.87,2-8.24,4.89-35.84,4.89-44.08,0C71.59-2.38,61.88.5,57.18,1.89,45.38,5.38,40.92,22.24,34.74,45.57l-2.07,7.77c-5.5,20.34-5.47,39.68.07,49.27,2,3.41,4.54,5.56,7.67,6.38a7.07,7.07,0,0,0,1.93.26c7.43,0,14.95-10.89,22.24-21.45,3.11-4.51,6.33-9.17,8.07-10.52,1.21-.94,5.83-3.1,22.6-2.87h20.87c14.28.06,18.36,2,19.45,2.88,1.74,1.35,5,6,8.07,10.52,7.93,11.48,16.13,23.35,24.18,21.2,3.12-.83,5.7-3,7.67-6.38C181,93,181.05,73.68,175.56,53.34Zm-6,45.85a6.19,6.19,0,0,1-3.51,3.2c-3.42.88-12.8-12.68-16.81-18.48-3.87-5.61-6.93-10-9.5-12-2.34-1.82-7.34-4.24-23.62-4.32l-20.84,0c-14.08-.2-22.85,1.22-26.82,4.3-2.58,2-5.64,6.43-9.51,12-4,5.8-13.38,19.35-16.81,18.48a6.26,6.26,0,0,1-3.51-3.2c-3.83-6.64-5.13-22.84.61-44.09q1.08-4,2.08-7.79C46.74,26.94,51,10.84,59.15,8.42a31.17,31.17,0,0,1,9-1.58,20,20,0,0,1,10.4,2.87c10.26,6.08,40.79,6.08,51,0,7.92-4.7,15.42-2.48,19.47-1.28,8.12,2.41,12.39,18.51,17.79,38.89q1,3.8,2.08,7.79C174.71,76.35,173.41,92.56,169.58,99.19Z" transform="translate(-1.71 0)"/><rect class="cls-1" x="64.85" y="23.9" width="6.83" height="27.31"/><rect class="cls-1" x="54.61" y="34.14" width="27.31" height="6.83"/><path class="cls-1" d="M136.54,23.91A15.36,15.36,0,1,0,151.9,39.27,15.38,15.38,0,0,0,136.54,23.91Zm0,23.89a8.54,8.54,0,1,1,8.53-8.53A8.54,8.54,0,0,1,136.54,47.8Z" transform="translate(-1.71 0)"/></svg>