<svg id="Layer_1" data-name="Layer 1" xmlns="http://www.w3.org/2000/svg" viewBox="0 0 512 399.78"><defs><style>.cls-1{fill:#fff;}</style></defs><title>cat3</title><path class="cls-1" d="M232.45,280.44h16v15h-16Z" transform="translate(0 -56)"/><path class="cls-1" d="M200.39,280.44h16v15h-16Z" transform="translate(0 -56)"/><path class="cls-1" d="M168.33,280.44h16v15h-16Z" transform="translate(0 -56)"/><path class="cls-1" d="M40.08,335.55H304.59v-15H55.11V111.11H368.72v-15H40.08Z" transform="translate(0 -56)"/><path class="cls-1" d="M87.17,183.25V143.17h41.08v-15H72.14v55.11Z" transform="translate(0 -56)"/><path class="cls-1" d="M415.81,128.14V56H0V375.63H168.33v28.94l-32.06,32.07v19.14H279.55V436.64l-32.07-32.07V375.63h73.15v80.15H512V128.14ZM262.41,440.75h-108l25.05-25.05h57.9Zm-79.05-40.08v-25h49.09v25Zm137.27-40.08H15V71H400.78v57.11H320.63Zm136.26,80.16H375.73V415.7h81.16Zm40.08,0H471.92V400.67H360.7v40.08h-25V271.42H497Zm0-184.36H335.66v-25H497Zm0-40.08H335.66v-25H497Zm0-40.08H335.66V143.17H497Z" transform="translate(0 -56)"/><path class="cls-1" d="M416.81,363.1a23.55,23.55,0,1,0-23.54-23.55A23.57,23.57,0,0,0,416.81,363.1Zm0-32.06a8.52,8.52,0,1,1-8.51,8.51A8.52,8.52,0,0,1,416.81,331Z" transform="translate(0 -56)"/></svg>