<svg id="Layer_5" data-name="Layer 5" xmlns="http://www.w3.org/2000/svg" viewBox="0 0 492.36 496"><defs><style>.cls-1{fill:#fff;}</style></defs><title>cat4</title><path class="cls-1" d="M368,40h80V56H368Z" transform="translate(-8 -8)"/><path class="cls-1" d="M368,72h80V88H368Z" transform="translate(-8 -8)"/><path class="cls-1" d="M368,104h80v16H368Z" transform="translate(-8 -8)"/><path class="cls-1" d="M400,136h48v16H400Z" transform="translate(-8 -8)"/><path class="cls-1" d="M400,168h48v16H400Z" transform="translate(-8 -8)"/><path class="cls-1" d="M400,200h48v16H400Z" transform="translate(-8 -8)"/><path class="cls-1" d="M400,232h48v16H400Z" transform="translate(-8 -8)"/><path class="cls-1" d="M128,312a72,72,0,1,0,72,72A72.08,72.08,0,0,0,128,312Zm0,128a56,56,0,1,1,56-56A56.07,56.07,0,0,1,128,440Z" transform="translate(-8 -8)"/><path class="cls-1" d="M128,344a40,40,0,1,0,40,40A40,40,0,0,0,128,344Zm0,64a24,24,0,1,1,24-24A24,24,0,0,1,128,408Z" transform="translate(-8 -8)"/><path class="cls-1" d="M408,424a18.19,18.19,0,0,1,16.62-18.2l75.74-6.89-5.19-10.46a80.54,80.54,0,0,0-15.17-21V8H160V56h-8a40,40,0,0,0-40,40V264H97.73l-5.5,22.35c-2.65,1-5.31,2.1-8,3.34L64.55,277.74,21.74,320.56l11.93,19.73q-1.85,4-3.33,8L8,353.73v60.54l22.35,5.5c1,2.66,2.1,5.32,3.33,8L21.74,447.46l42.81,42.8,19.74-11.94c2.64,1.24,5.29,2.34,7.95,3.34L97.73,504h60.54l5.5-22.35c2.65-1,5.31-2.1,7.95-3.34l19.73,11.95L217.7,464H354.75a79.55,79.55,0,0,0,140.41-4.45l5.19-10.46-75.73-6.89A18.19,18.19,0,0,1,408,424ZM464,24V355a78.87,78.87,0,0,0-32-10.42V311a39.89,39.89,0,0,0-14.39-30.72l-33.61-28V160a40.08,40.08,0,0,0-32-39.19V40H192v80H176V24ZM336,120H208V56H336ZM152,72h8v48h-8a24,24,0,0,1,0-48Zm-24,55.79A39.58,39.58,0,0,0,152,136H344a24,24,0,0,1,24,24v99.74l39.37,32.81A24,24,0,0,1,416,311v33.53A79.08,79.08,0,0,0,354.76,384H248V353.74l-22.35-5.5q-1.49-4-3.33-8l11.94-19.73-42.82-42.81-19.72,11.94c-2.64-1.23-5.3-2.34-8-3.34L158.27,264H128Zm61,342.28-16.59-10-4,2.07a88.59,88.59,0,0,1-13.82,5.77l-4.28,1.36L145.73,488H110.27l-4.61-18.76-4.28-1.36a88.9,88.9,0,0,1-13.82-5.78l-4-2.06L67,470.08,41.93,445l10-16.59-2.07-4a86.89,86.89,0,0,1-5.79-13.81l-1.36-4.28L24,401.73V366.27l18.78-4.61,1.35-4.29a87.84,87.84,0,0,1,5.77-13.8l2.08-4L41.94,323,67,297.92l16.58,10,4-2.06a87.71,87.71,0,0,1,13.82-5.78l4.27-1.36L110.27,280h35.46l4.61,18.76,4.28,1.36a87.37,87.37,0,0,1,13.81,5.78l4,2.07,16.59-10L214.07,323l-10,16.58,2.07,4a87,87,0,0,1,5.78,13.8l1.35,4.28L232,366.27v35.46l-18.78,4.61-1.35,4.29a87.84,87.84,0,0,1-5.77,13.8l-2.08,4,10,16.59ZM423.78,488a63.43,63.43,0,0,1-57.07-35.56L364.5,448H233.7l.56-.55-11.94-19.73q1.85-4,3.33-8L248,414.27V400H364.5l2.2-4.44A63.56,63.56,0,0,1,474.44,385.2l-51.26,4.66a34.28,34.28,0,0,0,0,68.28l51.26,4.67A63.22,63.22,0,0,1,423.78,488Z" transform="translate(-8 -8)"/><path class="cls-1" d="M336,248a16,16,0,0,0,16-16V168a16,16,0,0,0-16-16H160a16,16,0,0,0-16,16v64a16,16,0,0,0,16,16ZM160,168H336v64H160Z" transform="translate(-8 -8)"/><path class="cls-1" d="M328,352h16v16H328Z" transform="translate(-8 -8)"/><path class="cls-1" d="M296,352h16v16H296Z" transform="translate(-8 -8)"/><path class="cls-1" d="M264,352h16v16H264Z" transform="translate(-8 -8)"/></svg>