<svg id="Capa_1" data-name="Capa 1" xmlns="http://www.w3.org/2000/svg" viewBox="0 0 512 351.05"><defs><style>.cls-1{fill:#fff;}</style></defs><title>cat5</title><path class="cls-1" d="M504.53,375.06h-15V111.17a30.73,30.73,0,0,0-30.7-30.7H53.15a30.73,30.73,0,0,0-30.7,30.7V375.06h-15A7.46,7.46,0,0,0,0,382.53v8.94a40.1,40.1,0,0,0,40.05,40.06H368a7.47,7.47,0,0,0,0-14.94h-328a25.15,25.15,0,0,1-25.11-25.12V390H193.26v13.29a7.46,7.46,0,0,0,7.47,7.47H311.27a7.46,7.46,0,0,0,7.47-7.47V390H497.06v1.47A25.14,25.14,0,0,1,472,416.59H420.83a7.47,7.47,0,0,0,0,14.94H472A40.1,40.1,0,0,0,512,391.47v-8.94A7.46,7.46,0,0,0,504.53,375.06ZM303.8,395.82H208.2V390h95.6Zm170.81-21.39H37.39V111.17A15.78,15.78,0,0,1,53.15,95.41h405.7a15.78,15.78,0,0,1,15.76,15.76V374.43Z" transform="translate(0 -80.47)"/><path class="cls-1" d="M440.31,109.61H71.69a22.12,22.12,0,0,0-22.09,22.1v79.47a7.47,7.47,0,0,0,14.94,0V131.71a7.16,7.16,0,0,1,7.15-7.16H440.31a7.16,7.16,0,0,1,7.15,7.16V346.22H64.54V265a7.47,7.47,0,0,0-14.94,0v88.73a7.47,7.47,0,0,0,7.47,7.47H454.93a7.48,7.48,0,0,0,7.47-7.47v-222A22.12,22.12,0,0,0,440.31,109.61Z" transform="translate(0 -80.47)"/></svg>