<svg id="Layer_1" data-name="Layer 1" xmlns="http://www.w3.org/2000/svg" viewBox="0 0 474 424"><defs><style>.cls-1{fill:#fff;}</style></defs><title>cat6</title><path class="cls-1" d="M486,39H26a7,7,0,0,0-7,7h0V377.33a7,7,0,0,0,7,7H211.48V413h-15.1a43,43,0,0,0-43,43,7,7,0,0,0,7,7H351.62a7,7,0,0,0,7-7h0a43,43,0,0,0-43-43h-15.1V384.33H486a7,7,0,0,0,7-7h0V46a7,7,0,0,0-7-7Zm-7,14V311H33V53ZM343.77,449H168.23a29.05,29.05,0,0,1,28.15-22H315.62a29.05,29.05,0,0,1,28.15,22Zm-57.25-36h-61V384.33h61Zm7.12-42.67H33V325H479v45.33Z" transform="translate(-19 -39)"/><path class="cls-1" d="M462,166.33a7,7,0,0,0,7-7h0V102a7,7,0,0,0-14,0v57.33a7,7,0,0,0,7,7Z" transform="translate(-19 -39)"/><path class="cls-1" d="M280,340.67H232a7,7,0,0,0,0,14h48a7,7,0,0,0,0-14Z" transform="translate(-19 -39)"/><path class="cls-1" d="M262.79,80.66a105.29,105.29,0,0,0-73.5,29.6V80.65a8.11,8.11,0,0,0-16.21,0v48.63a8.11,8.11,0,0,0,5.54,7.69l48.63,16.2A8.11,8.11,0,0,0,237.51,148c1.41-4.26-.89-8.85-5.14-11.26l-35.9-12c33.16-35.11,89.32-37.5,125.43-4.34a88.78,88.78,0,1,1-147.59,50.65,8.1,8.1,0,1,0-15.95-2.84l0,.14A107.62,107.62,0,0,0,156.87,186,105.49,105.49,0,1,0,262.79,80.66Z" transform="translate(-19 -39)"/></svg>