<svg id="Capa_1" data-name="Capa 1" xmlns="http://www.w3.org/2000/svg" viewBox="0 0 320.53 312.1"><defs><style>.cls-1{fill:#fff;}</style></defs><title>connection</title><path class="cls-1" d="M149.43,119.16V63.57a30.14,30.14,0,1,0-15,0v55.59a50.36,50.36,0,0,0-36.55,25.6l-33-25.65a21.53,21.53,0,0,0,1.25-7.25,21.76,21.76,0,1,0-10.84,18.8l37.29,29a49.85,49.85,0,0,0,9,38.93L59.39,240.74A7.5,7.5,0,1,0,70,251.35l42.17-42.16a49.94,49.94,0,0,0,22.27,9.25v55.72a21.75,21.75,0,1,0,15,0V218.44a50.2,50.2,0,0,0,0-99.28Zm-105-.56a6.75,6.75,0,1,1,6.75-6.74A6.74,6.74,0,0,1,44.39,118.6Zm82.4-84.23a15.15,15.15,0,1,1,15.14,15.14A15.16,15.16,0,0,1,126.79,34.37Zm15.14,266.94A6.74,6.74,0,0,1,140.58,288a7.13,7.13,0,0,0,2.71,0,6.74,6.74,0,0,1-1.36,13.35Zm0-97.31a35.21,35.21,0,0,1-33.78-45.07c0-.15.1-.3.14-.46A35.2,35.2,0,1,1,141.93,204Z" transform="translate(0 -4.22)"/><path class="cls-1" d="M290.38,96a30.18,30.18,0,0,0-30.14,30.15c0,.78,0,1.54.09,2.3l-54.24,18.49a7.5,7.5,0,0,0,4.84,14.2l54.24-18.49A30.14,30.14,0,1,0,290.38,96Zm0,45.3a15.15,15.15,0,1,1,15.15-15.15A15.16,15.16,0,0,1,290.38,141.25Z" transform="translate(0 -4.22)"/><path class="cls-1" d="M30.15,250.44a30.15,30.15,0,1,0,30.14,30.15A30.18,30.18,0,0,0,30.15,250.44Zm0,45.3A15.15,15.15,0,1,1,45.3,280.59,15.17,15.17,0,0,1,30.15,295.74Z" transform="translate(0 -4.22)"/></svg>