<svg id="Layer_1" data-name="Layer 1" xmlns="http://www.w3.org/2000/svg" viewBox="0 0 177 176.88"><defs><style>.cls-1{fill:#a50a1d;}.cls-2{fill:#fff;}</style></defs><title>cross</title><ellipse class="cls-1" cx="88.5" cy="88.44" rx="88.5" ry="88.44"/><path class="cls-2" d="M110.08,96.82l32.54-32.53a2,2,0,0,0,0-2.83l-12-12a2,2,0,0,0-1.42-.59,2,2,0,0,0-1.41.59L95.23,82,62.7,49.44a2.06,2.06,0,0,0-2.83,0l-12,12a2,2,0,0,0,0,2.83L80.39,96.82,47.85,129.35a2,2,0,0,0,0,2.83l12,12a2,2,0,0,0,1.42.59,2,2,0,0,0,1.41-.59l32.53-32.53,32.54,32.53a2,2,0,0,0,1.41.59,2,2,0,0,0,1.42-.59l12-12a2,2,0,0,0,0-2.83Z" transform="translate(-6.74 -8.38)"/></svg>