<svg id="Layer_1" data-name="Layer 1" xmlns="http://www.w3.org/2000/svg" viewBox="0 0 460 512"><defs><style>.cls-1{fill:#fff;}</style></defs><title>datasheet</title><path class="cls-1" d="M208,104h64v12H208Z" transform="translate(-26)"/><path class="cls-1" d="M208,72h96V84H208Z" transform="translate(-26)"/><path class="cls-1" d="M326,136H202V244H326Zm-12,12v20H246V158H234v10H214V148Zm-80,42v10H214V180H314v20H246V190Zm12,42V222H234v10H214V212H314v20Z" transform="translate(-26)"/><path class="cls-1" d="M470,260V0H202V32H170V212H150V180H26V512H486V260ZM214,12H458V260H438V115.51L354.48,32H214ZM358,52.49,417.52,112H358ZM346,44v80h80V260H182V44ZM74,500H38V192H138v20H64v12H170v36H74Zm400,0H86V272H474Z" transform="translate(-26)"/><path class="cls-1" d="M454,436H362v44h92Zm-12,32H374V448h68Z" transform="translate(-26)"/></svg>