<svg id="Capa_1" data-name="Capa 1" xmlns="http://www.w3.org/2000/svg" viewBox="0 0 512 342.79"><defs><style>.cls-1{fill:#fff;}</style></defs><title>gamepad</title><path class="cls-1" d="M490.21,212c-22-43.91-56.57-74.95-94.94-85.14-26.06-6.92-52.13-3.2-73.66,10.47a196.37,196.37,0,0,1-133.48,2.07c-21.39-13.41-46.24-16.93-72-10.14C78.5,139.18,44.28,169.71,22.24,213-15.93,288.11-3.82,374.75,49.77,410.26,70.94,424.37,97,428.43,123,421.7c36-9.29,68.84-37.23,90.93-77.22a111.1,111.1,0,0,1,80.7.58c22.29,40.81,55.82,69.51,92.58,79.06a99.91,99.91,0,0,0,25.13,3.27,89,89,0,0,0,49.55-14.76C515.36,377.66,528,287.67,490.21,212ZM443.05,384c-13.61,9-29.91,11.4-47.16,6.93-28.14-7.32-55.41-31.9-72.8-65.51a22.35,22.35,0,0,0-10.59-10l-.78-.36a145.87,145.87,0,0,0-58.3-12.11,144.11,144.11,0,0,0-52.25,9.74l-1.19.3a17.26,17.26,0,0,0-3.58,1.32A21.91,21.91,0,0,0,186,324c-17.21,33.25-44,57.36-71.54,64.48-16.74,4.31-32.52,2-45.68-6.8-38-25.19-45.31-95.28-15.93-153,17.34-34.1,44.26-58.82,72-66.14,16.82-4.43,32.82-2.06,46.27,6.85a17.06,17.06,0,0,0,4.05,2l1.55.52a230.72,230.72,0,0,0,159-3.1A17,17,0,0,0,339,167c13.72-9.15,30.13-11.54,47.46-6.94,28.44,7.55,55.74,32.71,73,67.3C489.27,286.92,481.79,358.6,443.05,384Z" transform="translate(0 -84.61)"/><path class="cls-1" d="M256.21,84.61A17.16,17.16,0,0,0,239,101.78v63a17.17,17.17,0,0,0,34.34,0v-63A17.17,17.17,0,0,0,256.21,84.61Z" transform="translate(0 -84.61)"/><path class="cls-1" d="M133.15,204.8a54.38,54.38,0,1,0,54.37,54.38A54.45,54.45,0,0,0,133.15,204.8Zm0,74.41a20,20,0,1,1,20-20A20.05,20.05,0,0,1,133.15,279.21Z" transform="translate(0 -84.61)"/><path class="cls-1" d="M387.85,204.8A17.17,17.17,0,0,0,370.68,222v80.13a17.17,17.17,0,1,0,34.34,0V222A17.17,17.17,0,0,0,387.85,204.8Z" transform="translate(0 -84.61)"/><path class="cls-1" d="M427.91,244.87H347.78a17.17,17.17,0,1,0,0,34.34h80.13a17.17,17.17,0,0,0,0-34.34Z" transform="translate(0 -84.61)"/></svg>