<svg id="Capa_1" data-name="Capa 1" xmlns="http://www.w3.org/2000/svg" viewBox="0 0 512 292.18"><defs><style>.cls-1{fill:#fff;}</style></defs><title>overclocking</title><path class="cls-1" d="M0,365.91H68.24a167.46,167.46,0,0,1,17.55-67.2L22.57,260.65A255.1,255.1,0,0,0,0,365.91Z" transform="translate(0 -109.91)"/><path class="cls-1" d="M296.21,113.06,283,212.16a168.06,168.06,0,0,1,67.69,38.17l77.38-74A255.16,255.16,0,0,0,296.21,113.06Z" transform="translate(0 -109.91)"/><path class="cls-1" d="M36.54,234.05l65,39.14a169.22,169.22,0,0,1,53.57-46.67L106,158.42a257.36,257.36,0,0,0-69.5,75.63Z" transform="translate(0 -109.91)"/><path class="cls-1" d="M449,197.78l-78.22,74.79a167.54,167.54,0,0,1,33.79,93.34H512a255,255,0,0,0-63-168.13Z" transform="translate(0 -109.91)"/><path class="cls-1" d="M253.47,206.48l12.86-96.35c-3.43-.13-6.87-.22-10.33-.22a254.81,254.81,0,0,0-124.63,32.35l51.86,72a168.26,168.26,0,0,1,53.19-8.58q8.64,0,17.05.85Z" transform="translate(0 -109.91)"/><path class="cls-1" d="M210,356.07a46,46,0,1,0,92,0c0-25.41-46-143-46-143S210,330.66,210,356.07Z" transform="translate(0 -109.91)"/></svg>