<svg id="Capa_1" data-name="Capa 1" xmlns="http://www.w3.org/2000/svg" viewBox="0 0 480 480"><defs><style>.cls-1{fill:#fff;}</style></defs><title>pc</title><path class="cls-1" d="M456,96H224V8a8,8,0,0,0-8-8H8A8,8,0,0,0,0,8V472a8,8,0,0,0,8,8H376a8,8,0,0,0,5.66-13.66l-40-40A8,8,0,0,0,336,424H280V384H456a24,24,0,0,0,24-24V120A24,24,0,0,0,456,96ZM208,464H16V16H208Zm124.69-24,24,24H224V384h40v40H248a8,8,0,0,0,0,16ZM464,360a8,8,0,0,1-8,8H224V352h32V336H224V144h32V128H224V112H456a8,8,0,0,1,8,8Z"/><polygon class="cls-1" points="272 144 432 144 432 336 336 336 336 352 448 352 448 128 272 128 272 144"/><rect class="cls-1" x="304" y="336" width="16" height="16"/><rect class="cls-1" x="272" y="336" width="16" height="16"/><rect class="cls-1" x="40" y="128" width="144" height="16"/><rect class="cls-1" x="40" y="160" width="144" height="16"/><path class="cls-1" d="M72,336a24,24,0,1,0,24,24A24,24,0,0,0,72,336Zm0,32a8,8,0,1,1,8-8A8,8,0,0,1,72,368Z"/><path class="cls-1" d="M176,360a24,24,0,1,0-24,24A24,24,0,0,0,176,360Zm-24,8a8,8,0,1,1,8-8A8,8,0,0,1,152,368Z"/><rect class="cls-1" x="40" y="408" width="16" height="32"/><rect class="cls-1" x="72" y="408" width="16" height="32"/><rect class="cls-1" x="104" y="408" width="16" height="32"/><rect class="cls-1" x="136" y="408" width="16" height="32"/><rect class="cls-1" x="168" y="408" width="16" height="32"/></svg>