<svg id="Layer_1" data-name="Layer 1" xmlns="http://www.w3.org/2000/svg" viewBox="0 0 193 193"><defs><style>.cls-1{fill:#3a3a3a;}</style></defs><title>sub-cat2</title><g id="surface1"><path class="cls-1" d="M183.35,0H9.65A9.65,9.65,0,0,0,0,9.65v115.8a9.65,9.65,0,0,0,9.65,9.65H32.17v19.3a9.65,9.65,0,0,0,9.65,9.65H83.63a3.22,3.22,0,0,1,3.22,3.22v16.08a9.65,9.65,0,1,0,19.3,0V154.4a9.65,9.65,0,0,0-9.65-9.65H54.68a3.22,3.22,0,0,1-3.21-3.22V135.1H183.35a9.65,9.65,0,0,0,9.65-9.65V9.65A9.65,9.65,0,0,0,183.35,0ZM41.82,99.72a9.65,9.65,0,0,0-9.65,9.65v2.07a12.87,12.87,0,1,1,19.3,0v-2.07A9.65,9.65,0,0,0,41.82,99.72Zm12.86,51.46H96.5a3.22,3.22,0,0,1,3.22,3.22v28.95a3.22,3.22,0,0,1-6.44,0V167.27a9.65,9.65,0,0,0-9.65-9.65H41.82a3.22,3.22,0,0,1-3.22-3.22v-45a3.22,3.22,0,1,1,6.43,0v32.16A9.65,9.65,0,0,0,54.68,151.18Zm131.89-25.73a3.22,3.22,0,0,1-3.22,3.22H51.47v-9a19.3,19.3,0,1,0-19.3,0v9H9.65a3.22,3.22,0,0,1-3.22-3.22V9.65A3.22,3.22,0,0,1,9.65,6.43h173.7a3.22,3.22,0,0,1,3.22,3.22Z"/><path class="cls-1" d="M12.87,12.87H19.3V64.33H12.87Z"/><path class="cls-1" d="M25.73,12.87h6.44V64.33H25.73Z"/><path class="cls-1" d="M38.6,12.87H45V64.33H38.6Z"/><path class="cls-1" d="M51.47,12.87H57.9V64.33H51.47Z"/><path class="cls-1" d="M64.33,12.87h6.44V64.33H64.33Z"/><path class="cls-1" d="M77.2,12.87h6.43V64.33H77.2Z"/><path class="cls-1" d="M176.92,12.87H99.72a3.22,3.22,0,0,0-3.22,3.21v45a3.22,3.22,0,0,0,3.22,3.21h77.2a3.21,3.21,0,0,0,3.21-3.21v-45A3.21,3.21,0,0,0,176.92,12.87Zm-3.22,45H102.93V19.3H173.7Z"/><path class="cls-1" d="M160.83,22.52h6.44V29h-6.44Z"/><path class="cls-1" d="M144.75,22.52h12.87V29H144.75Z"/><path class="cls-1" d="M128.67,32.17h38.6V38.6h-38.6Z"/><path class="cls-1" d="M128.67,41.82h38.6v6.43h-38.6Z"/><path class="cls-1" d="M176.92,77.2h-45a3.22,3.22,0,0,0-3.21,3.22V119a3.21,3.21,0,0,0,3.21,3.21h45a3.21,3.21,0,0,0,3.21-3.21V80.42A3.22,3.22,0,0,0,176.92,77.2Zm-3.22,38.6H135.1V83.63h38.6Z"/><path class="cls-1" d="M141.53,90.07H148v12.86h-6.44Z"/><path class="cls-1" d="M160.83,90.07h6.44v12.86h-6.44Z"/><path class="cls-1" d="M148,102.93h12.86v6.44H148Z"/></g></svg>