<svg id="Capa_1" data-name="Capa 1" xmlns="http://www.w3.org/2000/svg" viewBox="0 0 192 192"><defs><style>.cls-1{fill:#303030;}</style></defs><title>sub-cat3</title><path class="cls-1" d="M96,144.75a3.76,3.76,0,1,0,2.65,1.1A3.76,3.76,0,0,0,96,144.75Z"/><path class="cls-1" d="M148.5,39.75H43.5a3.75,3.75,0,0,0-3.75,3.75v105a3.75,3.75,0,0,0,3.75,3.75H79.13a3.75,3.75,0,0,0,0-7.5H47.25V47.25h97.5v97.5H112.88a3.75,3.75,0,0,0,0,7.5H148.5a3.75,3.75,0,0,0,3.75-3.75V43.5A3.75,3.75,0,0,0,148.5,39.75Z"/><path class="cls-1" d="M188.25,75.38a3.75,3.75,0,0,0,0-7.5h-16.5V51h16.5a3.75,3.75,0,0,0,0-7.5h-16.5V39A18.77,18.77,0,0,0,153,20.25h-4.5V3.75a3.75,3.75,0,0,0-7.5,0v16.5H124.13V3.75a3.75,3.75,0,0,0-7.5,0v16.5H99.75V3.75a3.75,3.75,0,0,0-7.5,0v16.5H75.38V3.75a3.75,3.75,0,0,0-7.5,0v16.5H51V3.75a3.75,3.75,0,0,0-7.5,0v16.5H39A18.77,18.77,0,0,0,20.25,39v4.5H3.75a3.75,3.75,0,0,0,0,7.5h16.5V67.88H3.75a3.75,3.75,0,0,0,0,7.5h16.5V92.25H3.75a3.75,3.75,0,0,0,0,7.5h16.5v16.88H3.75a3.75,3.75,0,0,0,0,7.5h16.5V141H3.75a3.75,3.75,0,0,0,0,7.5h16.5V153A18.77,18.77,0,0,0,39,171.75h4.5v16.5a3.75,3.75,0,0,0,7.5,0v-16.5H67.88v16.5a3.75,3.75,0,0,0,7.5,0v-16.5H92.25v16.5a3.75,3.75,0,0,0,7.5,0v-16.5h16.88v16.5a3.75,3.75,0,0,0,7.5,0v-16.5H141v16.5a3.75,3.75,0,0,0,7.5,0v-16.5H153A18.77,18.77,0,0,0,171.75,153v-4.5h16.5a3.75,3.75,0,0,0,0-7.5h-16.5V124.13h16.5a3.75,3.75,0,0,0,0-7.5h-16.5V99.75h16.5a3.75,3.75,0,0,0,0-7.5h-16.5V75.38Zm-24,77.62A11.27,11.27,0,0,1,153,164.25H39A11.27,11.27,0,0,1,27.75,153V39A11.27,11.27,0,0,1,39,27.75H153A11.27,11.27,0,0,1,164.25,39Z"/><path class="cls-1" d="M69.34,75.75h53.32a3.75,3.75,0,0,0,0-7.5H69.34a3.75,3.75,0,0,0,0,7.5Z"/><path class="cls-1" d="M69.34,99.75h53.32a3.75,3.75,0,0,0,0-7.5H69.34a3.75,3.75,0,0,0,0,7.5Z"/><path class="cls-1" d="M69.34,123.75h53.32a3.75,3.75,0,0,0,0-7.5H69.34a3.75,3.75,0,0,0,0,7.5Z"/></svg>