<svg id="Capa_1" data-name="Capa 1" xmlns="http://www.w3.org/2000/svg" viewBox="0 0 158.61 158.85"><defs><style>.cls-1{fill:#353535;}</style></defs><title>sub-cat1</title><path class="cls-1" d="M31.29,61c3.42.63,7.05,1.15,10.79,1.55a2.65,2.65,0,0,0,.56-5.27c-3.6-.38-7.1-.88-10.39-1.49a2.65,2.65,0,1,0-1,5.21Z"/><path class="cls-1" d="M31.29,82.2c3.42.63,7.05,1.15,10.79,1.55a2.64,2.64,0,0,0,.56-5.26c-3.6-.39-7.1-.89-10.39-1.5a2.65,2.65,0,1,0-1,5.21Z"/><path class="cls-1" d="M45,102.44a2.64,2.64,0,0,0-2.36-2.77c-3.6-.39-7.1-.89-10.39-1.5a2.65,2.65,0,1,0-1,5.21c3.42.63,7.05,1.15,10.79,1.55h.28A2.64,2.64,0,0,0,45,102.44Z"/><path class="cls-1" d="M141.12,116.74a32.53,32.53,0,0,0,.2-3.56c0-13.44-8.35-24.71-19.53-27.67V21.18C121.79,7.42,90.41,0,60.89,0S0,7.42,0,21.18V105.9C0,116.69,18.78,123,37.9,125.61a22.65,22.65,0,0,0-3.48,12.16c0,11.63,8.46,21.08,18.86,21.08h86.47c10.4,0,18.86-9.45,18.86-21.08C158.61,126.66,150.88,117.52,141.12,116.74ZM60.89,5.3c34.45,0,55.6,9.25,55.6,15.88S95.34,37.07,60.89,37.07,5.29,27.81,5.29,21.18,26.45,5.3,60.89,5.3ZM5.29,105.9V93.81a46.36,46.36,0,0,0,15.14,7,2.65,2.65,0,1,0,1.5-5.08C9.67,92.1,5.3,87.66,5.3,84.72V72.63a46.22,46.22,0,0,0,15.13,7,2.65,2.65,0,1,0,1.5-5.08C9.67,70.92,5.3,66.48,5.3,63.54V51.45a46.22,46.22,0,0,0,15.13,7,2.65,2.65,0,1,0,1.5-5.08C9.67,49.74,5.3,45.3,5.3,42.36V30.24c10.17,7.92,33.4,12.12,55.59,12.12s45.43-4.2,55.6-12.12V42.36c0,6.64-21.15,15.89-55.6,15.89q-4,0-7.82-.17a2.65,2.65,0,0,0-.23,5.29c2.63.11,5.32.17,8,.17,22.2,0,45.43-4.19,55.6-12.12V63.54c0,6.64-21.15,15.89-55.6,15.89q-4,0-7.82-.17a2.67,2.67,0,0,0-2.76,2.53,2.65,2.65,0,0,0,2.53,2.76c2.63.11,5.32.17,8,.17,22.2,0,45.43-4.19,55.6-12.12V84.75c-.17,0-.34,0-.52,0a24.87,24.87,0,0,0-21.7,13.79,23,23,0,0,0-12.89-4,23.58,23.58,0,0,0-15.56,6c-4.23.14-8.61.1-12.76-.07A2.58,2.58,0,0,0,50.31,103a2.64,2.64,0,0,0,2.53,2.75c2.63.11,5.32.16,8,.16h.2A29.86,29.86,0,0,0,56.6,117a16.91,16.91,0,0,0-3.32-.33,17.51,17.51,0,0,0-11.15,4.12C18.21,118.14,5.29,111.19,5.29,105.9Zm134.46,47.66H53.28c-7.48,0-13.57-7.09-13.57-15.79S45.8,122,53.28,122a11.06,11.06,0,0,1,4.46.91,2.65,2.65,0,0,0,3.69-2.2A24.16,24.16,0,0,1,68.82,105h0a18.39,18.39,0,0,1,12.55-5.09,18.17,18.17,0,0,1,12.15,4.77,2.65,2.65,0,0,0,4.22-1A20.08,20.08,0,0,1,116,90C127,90,136,100.41,136,113.18a26.69,26.69,0,0,1-.61,5.71,2.66,2.66,0,0,0,.67,2.39,2.69,2.69,0,0,0,2.36.78,8.16,8.16,0,0,1,1.31-.08c7.48,0,13.57,7.08,13.57,15.79S147.23,153.56,139.75,153.56Z"/></svg>